<svg width="277" height="43" viewBox="0 0 277 43" fill="none" xmlns="http://www.w3.org/2000/svg">
<path fill-rule="evenodd" clip-rule="evenodd" d="M259.386 42.6282C260.239 42.2891 261.065 41.8896 261.884 41.4742C264.167 40.3188 266.386 39.0441 268.573 37.7084C270.275 36.6695 271.953 35.5931 273.573 34.4217C274.143 34.009 274.71 33.5902 275.229 33.1095C275.445 32.9092 275.643 32.6865 275.837 32.4625C276.016 32.2564 276.13 32.0097 276.186 31.7399C276.361 30.893 276.472 30.038 276.462 29.1703C276.451 28.1668 276.321 27.1784 276.061 26.2105C275.54 24.2637 274.626 22.5277 273.4 20.9602C273.378 20.9312 273.348 20.9076 273.274 20.8335C273.306 20.9929 273.331 21.0858 273.34 21.1809C273.353 21.3162 273.369 21.4534 273.355 21.5865C273.299 22.1068 273.079 22.5554 272.724 22.9216C272.459 23.1957 272.173 23.4514 271.874 23.6865C271.359 24.0931 270.833 24.4884 270.298 24.8676C268.288 26.2922 266.209 27.605 264.111 28.8853C261.704 30.3528 255.313 33.874 255.313 33.874C255.928 34.224 257.691 35.3359 258.743 37.6522C259.754 39.8804 259.508 41.9057 259.386 42.6282Z" fill="#E77D44"/>
<path fill-rule="evenodd" clip-rule="evenodd" d="M251.652 37.8135L248.188 42.1383C247.913 42.4816 248.15 43.0002 248.582 43.0002H253.972C254.033 42.5336 254.49 39.6543 251.652 37.8135Z" fill="#E77D44"/>
<path fill-rule="evenodd" clip-rule="evenodd" d="M273.399 20.9604C273.376 20.9314 273.347 20.9076 273.273 20.8335C273.304 20.9931 273.33 21.0866 273.339 21.1809C273.352 21.3162 273.369 21.4536 273.354 21.5867C273.297 22.1068 273.078 22.5554 272.724 22.9216C272.458 23.1957 272.172 23.4524 271.873 23.6873C271.357 24.0931 270.832 24.4884 270.298 24.8678C268.822 25.9137 267.309 26.8984 265.779 27.8541C273.247 26.4672 275.495 29.7218 276.17 31.7995C276.175 31.7803 276.18 31.7601 276.185 31.7399C276.36 30.893 276.471 30.038 276.461 29.1705C276.449 28.1668 276.32 27.1786 276.061 26.2105C275.539 24.2637 274.625 22.5277 273.399 20.9604Z" fill="#E46E38"/>
<path fill-rule="evenodd" clip-rule="evenodd" d="M276.747 28.7035C276.653 28.6404 276.663 28.5579 276.66 28.483C276.642 27.987 276.571 27.498 276.476 27.0126C276.048 24.8398 275.226 22.8515 273.867 21.1141C273.267 20.3457 272.575 19.6744 271.79 19.1128C270.816 18.4157 269.838 17.7215 268.845 17.0549C266.422 15.4294 263.936 13.912 261.419 12.4451C259.38 11.2557 257.321 10.1031 255.216 9.03922C254.406 8.62851 253.591 8.22571 252.746 7.89272C252.439 7.7715 252.128 7.65839 251.81 7.56961C251.404 7.45511 250.991 7.46559 250.584 7.59175C250.355 7.66314 250.152 7.78099 249.972 7.94275C249.925 7.98506 249.876 8.02382 249.8 8.0869C249.81 8.01413 249.81 7.97537 249.823 7.94136C250.737 5.53623 252.093 3.46033 254.097 1.87009C255.114 1.06291 256.246 0.481748 257.468 0.0803319C257.823 -0.0371267 258.172 -0.0120135 258.526 0.0676764C258.997 0.174457 259.445 0.350645 259.889 0.539291C261.003 1.01229 262.085 1.55885 263.155 2.12953C266.459 3.8924 269.675 5.81425 272.777 7.93444C273.522 8.44402 274.254 8.97338 274.956 9.54623C275.274 9.80547 275.572 10.0865 275.854 10.3866C276.069 10.6142 276.214 10.8826 276.3 11.1857C276.484 11.83 276.58 12.4916 276.649 13.1574C276.909 15.6499 276.981 18.1508 276.997 20.6552C277.007 22.4311 276.995 24.2066 276.919 25.9813C276.882 26.8532 276.818 27.7242 276.765 28.5953C276.764 28.6238 276.756 28.652 276.747 28.7035Z" fill="#ED9847"/>
<path fill-rule="evenodd" clip-rule="evenodd" d="M248.072 30.3235C248.357 30.6786 248.916 30.4593 248.894 29.9996C248.809 28.225 248.673 25.3586 248.657 24.6942C248.59 21.8874 248.619 19.082 248.7 16.2761C248.752 14.5083 248.87 12.7432 248.995 10.979C249.028 10.5218 249.068 10.0621 249.138 9.60784C249.327 8.39054 249.712 7.23869 250.28 6.15467C251.304 4.20039 252.695 2.5797 254.471 1.31534C254.538 1.26748 254.627 1.23901 254.662 1.11621C254.623 1.12333 254.605 1.12175 254.59 1.12867C254.318 1.26274 254.045 1.39443 253.776 1.53226C250.514 3.21069 247.357 5.07975 244.285 7.10067C243.245 7.78466 242.221 8.49257 241.241 9.26733C240.848 9.57798 240.471 9.9088 240.128 10.28C239.939 10.4844 239.735 10.886 239.665 11.1599C239.585 11.4733 239.513 11.7903 239.457 12.1095C239.313 12.941 239.247 13.783 239.186 14.6242C239.095 15.8628 239.039 17.1036 239.013 18.3449C238.969 20.54 239.049 27.2345 239.086 30.1063C239.092 30.5544 239.641 30.7474 239.914 30.3962L243.603 25.649C243.787 25.412 244.135 25.4098 244.323 25.6435L248.072 30.3235Z" fill="#F5BD44"/>
<path fill-rule="evenodd" clip-rule="evenodd" d="M255.268 33.8721L251.652 37.8135C253.315 38.8619 254.231 40.815 253.994 42.8088L253.972 42.9994L259.385 42.6285C259.705 40.8371 259.423 39.1492 258.651 37.4763C257.879 35.8042 256.752 34.6023 255.268 33.8721Z" fill="#FFFFFE"/>
<path fill-rule="evenodd" clip-rule="evenodd" d="M217.603 9.14326C219.356 9.14326 220.782 7.75378 220.773 6.05181C220.764 4.3602 219.346 2.98819 217.605 2.9873C215.853 2.9873 214.428 4.37768 214.436 6.07995C214.445 7.77037 215.863 9.14326 217.603 9.14326ZM196.407 39.7915C197.976 39.5377 199.09 38.2501 199.076 36.7303C199.062 35.2241 197.926 33.946 196.38 33.7188C194.97 33.5126 193.223 34.2241 192.726 36.2229C192.181 34.1053 190.338 33.5127 189.043 33.7241C187.474 33.9792 186.359 35.2659 186.373 36.7866C186.386 38.2927 187.524 39.5709 189.069 39.7969C190.492 40.0051 192.231 39.2815 192.723 37.2928C193.268 39.4094 195.108 40.003 196.407 39.7915ZM164.975 34.7709C164.604 34.3553 164.154 34.0511 163.617 33.8657C163.071 33.6773 162.512 33.6344 161.945 33.7437C160.387 34.047 159.321 35.3293 159.362 36.8405C159.402 38.3333 160.562 39.6002 162.082 39.801C163.546 39.9959 165.23 39.2344 165.719 37.2498C165.855 37.828 166.074 38.325 166.45 38.7459C166.821 39.1612 167.272 39.4657 167.808 39.6511C168.355 39.8395 168.913 39.8825 169.48 39.772C171.039 39.4696 172.105 38.1864 172.063 36.6752C172.023 35.1823 170.863 33.9167 169.344 33.715C167.884 33.5209 166.196 34.2783 165.706 36.2658C165.57 35.6885 165.352 35.1918 164.975 34.7709ZM198.045 27.8211C194.436 31.6481 188.261 31.5867 184.748 27.7877C182.95 29.6481 180.749 30.6564 178.103 30.6605C175.466 30.665 173.269 29.6671 171.445 27.8034C169.647 29.6514 167.454 30.6564 164.818 30.6605C162.181 30.6659 159.983 29.67 158.156 27.8034C156.36 29.6502 154.167 30.6546 151.534 30.6605C148.897 30.667 146.698 29.673 144.867 27.8043C143.073 29.6469 140.882 30.6534 138.25 30.6605C135.613 30.6676 133.414 29.6762 131.598 27.8253C131.478 27.9417 131.363 28.0522 131.248 28.1627C128.604 30.7251 125.958 33.2855 123.318 35.8509C123.056 36.1062 122.769 36.2125 122.402 36.1613C121.887 36.0908 121.397 35.9492 120.928 35.7365C120.254 35.4294 119.629 35.0449 119.048 34.5938C118.702 34.3239 118.693 34.1326 119.006 33.8293C121.912 31.0127 124.812 28.1908 127.732 25.3878C128.184 24.9542 128.603 24.5149 128.876 23.9575C130.152 21.3556 128.43 18.2639 125.484 17.9058C122.79 17.5776 120.794 19.4982 120.543 21.5731C120.385 22.8805 120.751 24.0232 121.651 24.9983C121.974 25.3473 122.347 25.6491 122.691 25.9782C123.269 26.5336 123.844 27.0907 124.417 27.6514C124.687 27.915 124.684 28.1316 124.393 28.3567C123.616 28.9565 122.784 29.4742 121.83 29.769C121.518 29.8655 121.191 29.9209 120.866 29.9733C120.621 30.0127 120.389 29.9378 120.215 29.7648C119.445 29.0003 118.623 28.2785 117.93 27.4524C116.466 25.7045 115.856 23.6711 116.028 21.4241C116.31 17.7506 119.04 14.6339 122.758 13.7329C127.729 12.5288 132.797 15.7089 133.66 20.592C133.739 21.0337 133.764 21.4839 133.798 21.9306C133.861 22.7324 134.011 23.5079 134.442 24.2149C135.365 25.7264 137.161 26.5501 138.94 26.2658C140.741 25.9782 142.187 24.6399 142.546 22.9152C142.591 22.7025 142.606 22.4806 142.609 22.262C142.621 21.1338 142.624 20.0065 142.632 18.8785C142.635 18.5139 142.811 18.3442 143.162 18.3847C144.034 18.4849 144.893 18.6504 145.697 19.0014C146.041 19.1525 146.359 19.3598 146.686 19.5482C147.027 19.7461 147.169 20.039 147.158 20.4274C147.142 20.9952 147.162 21.5651 147.153 22.1338C147.137 23.2522 147.557 24.2087 148.351 24.9939C149.571 26.2 151.065 26.6067 152.737 26.1429C154.398 25.6826 155.464 24.5828 155.82 22.9439C156.414 20.2256 154.348 18.0255 151.98 17.8223C151.766 17.8036 151.55 17.7912 151.334 17.7912C148.635 17.7891 145.936 17.7888 143.237 17.7888C142.675 17.7888 142.569 17.689 142.63 17.1567C142.726 16.3202 142.916 15.5015 143.287 14.7379C143.448 14.4068 143.665 14.0993 143.871 13.7901C144.052 13.5161 144.328 13.4035 144.662 13.4068C145.095 13.4109 145.527 13.4077 145.961 13.4077C147.814 13.4077 149.669 13.4015 151.523 13.4097C152.828 13.4151 154.085 13.66 155.259 14.2172C158.094 15.564 159.793 17.7461 160.31 20.7701C160.387 21.2108 160.413 21.664 160.418 22.111C160.441 24.262 162.144 26.0753 164.357 26.2889C166.727 26.5181 168.823 24.9418 169.165 22.6732C169.184 22.5464 169.188 22.4149 169.188 22.2857C169.189 19.5713 169.189 16.8566 169.189 14.1411C169.189 13.5611 169.29 13.4619 169.874 13.5276C170.707 13.6215 171.521 13.8004 172.285 14.1369C172.619 14.2859 172.929 14.4879 173.245 14.6745C173.584 14.8745 173.725 15.1724 173.715 15.5566C173.702 16.0453 173.712 16.535 173.712 17.0234C173.712 18.7005 173.709 20.3773 173.712 22.0544C173.715 24.1553 175.266 25.9391 177.403 26.2637C180.192 26.6879 182.504 24.5774 182.502 22.0742C182.498 15.9766 182.5 9.87873 182.5 3.77994C182.5 3.67982 182.499 3.57971 182.502 3.47989C182.513 3.15999 182.66 3.00182 182.978 3.03322C184.262 3.1591 185.492 3.44227 186.567 4.18929C186.891 4.4144 187.029 4.69135 187.028 5.07582C187.019 7.57043 187.024 10.065 187.024 12.5608C187.024 15.7151 187.02 18.8681 187.025 22.0221C187.028 23.9288 188.267 25.5638 190.122 26.1272C192.667 26.8982 195.362 25.2806 195.772 22.7324C195.793 22.6056 195.789 22.4732 195.789 22.3441C195.79 19.6401 195.79 16.9348 195.79 14.2296C195.79 14.1505 195.789 14.0703 195.79 13.99C195.799 13.6233 195.948 13.4776 196.33 13.5152C197.352 13.6141 198.341 13.8392 199.256 14.3058C199.509 14.4349 199.742 14.6025 199.977 14.764C200.191 14.9121 200.3 15.1215 200.31 15.3765C200.313 15.4962 200.313 15.6162 200.313 15.7358C200.313 17.8421 200.308 19.9493 200.315 22.0556C200.322 23.9391 201.57 25.57 203.414 26.1283C203.83 26.2533 204.257 26.3191 204.691 26.3191C209.059 26.32 213.427 26.3138 217.795 26.32C218.526 26.3212 219.239 26.2533 219.9 25.9408C221.559 25.1565 222.441 23.8689 222.488 22.0742C222.503 21.5183 222.503 20.9525 222.422 20.4034C222.166 18.6587 220.65 17.2068 218.849 16.9298C216.49 16.5661 214.336 17.9588 213.809 20.2022C213.742 20.491 213.713 20.7941 213.709 21.0908C213.697 21.9993 213.696 22.9074 213.707 23.8162C213.712 24.1995 213.566 24.4773 213.248 24.7057C212.553 25.2024 211.767 25.4838 210.939 25.6672C210.528 25.7584 210.108 25.8188 209.691 25.8638C209.336 25.9023 209.184 25.764 209.184 25.4263C209.183 23.8494 209.151 22.2712 209.202 20.6951C209.269 18.6661 210.044 16.8869 211.439 15.3756C212.994 13.687 214.954 12.7172 217.279 12.5214C222.164 12.1118 226.048 15.4192 226.817 19.4754C226.923 20.0316 226.965 20.6036 226.987 21.169C227.014 21.8858 227.006 22.6035 226.891 23.318C226.582 25.2368 225.717 26.8783 224.282 28.2305C222.78 29.6448 220.971 30.4354 218.89 30.6333C218.441 30.6762 217.985 30.6638 217.533 30.6638C213.298 30.6659 209.065 30.6626 204.831 30.6659C202.221 30.6688 200.015 29.7607 198.205 27.9396C198.177 27.9118 198.149 27.8816 198.118 27.8552C198.103 27.8439 198.082 27.8377 198.045 27.8211Z" fill="#FFFFFE"/>
<path fill-rule="evenodd" clip-rule="evenodd" d="M84.0277 20.9753C84.0277 21.1994 84.0189 21.4232 84.0016 21.6452C84.1062 22.0406 84.2593 22.4232 84.4579 22.7844C85.3614 24.3177 87.1256 25.139 88.8925 24.8483C90.6593 24.5583 92.0621 23.2162 92.4177 21.4761C92.46 21.2588 92.4809 21.0379 92.4812 20.8168V17.415C92.4812 17.0486 92.6606 16.8814 92.9984 16.923C93.8563 17.0009 94.6965 17.2092 95.4898 17.5406C95.8231 17.7089 96.1473 17.8942 96.4613 18.0953C96.7776 18.2718 96.9598 18.6161 96.9258 18.9746V20.6912C96.896 21.7675 97.3208 22.8066 98.0973 23.5589C99.1816 24.7465 100.863 25.2003 102.405 24.7211C103.988 24.3568 105.2 23.0934 105.488 21.5075C105.753 20.3199 105.493 19.0764 104.772 18.0917C104.051 17.1071 102.94 16.4758 101.719 16.3578H101.085H93.0934C92.5447 16.3578 92.439 16.2533 92.5022 15.7194C92.583 14.8806 92.8006 14.0605 93.1464 13.291C93.3158 12.962 93.5063 12.6438 93.7166 12.3386C93.8889 12.0809 94.1864 11.9334 94.4976 11.9512H101.265C102.536 11.9421 103.793 12.2215 104.938 12.7677C107.616 13.9803 109.486 16.4618 109.9 19.3514C109.969 19.798 110.001 20.2498 109.995 20.7016C110.07 22.826 109.269 24.8891 107.779 26.4167C106.109 28.2428 103.74 29.284 101.254 29.284C98.7687 29.284 96.3986 28.2428 94.73 26.4167C93.0613 28.2354 90.6961 29.2725 88.2161 29.2725C85.8358 29.2725 83.5612 28.3172 81.9068 26.6318C81.656 26.9207 81.385 27.1949 81.0943 27.4522C79.5529 28.9666 77.4265 29.7627 75.2492 29.6409H75.2174H67.3029C66.9722 29.6409 66.8124 29.4838 66.8441 29.18C66.917 27.9319 67.3253 26.7251 68.0282 25.6824C68.2336 25.3915 68.5748 25.2221 68.9348 25.232H75.1641C77.4526 25.2621 79.3757 23.5506 79.5693 21.3116C79.7629 19.0725 78.1611 17.0672 75.8998 16.7183C75.7485 16.6624 72.2573 16.7057 71.4105 16.7161C71.3028 16.7174 71.2377 16.7183 71.2283 16.7183C70.8551 16.7183 70.7054 16.5612 70.7375 16.1947C70.8182 15.2027 71.0934 14.2356 71.5483 13.3463C71.6897 13.103 71.8464 12.8687 72.0173 12.6446C72.1618 12.4432 72.3959 12.3222 72.6467 12.32H75.2066C77.3803 12.2831 79.4863 13.0622 81.0943 14.4981C82.9619 16.1521 84.0277 18.5061 84.0277 20.9753ZM2.91986 27.112C1.06076 25.4589 0 23.1087 0 20.643C0 18.1777 1.06076 15.8275 2.91986 14.1746C4.39098 12.6662 6.45724 11.8636 8.57905 11.9766H13.3053C13.4031 11.9424 13.5422 11.9435 13.7386 11.9659C14.5905 12.0472 15.424 12.2631 16.2064 12.6046C16.5408 12.7727 16.8642 12.9615 17.1745 13.1697C17.4364 13.3405 17.5863 13.6355 17.5679 13.9442V15.211V20.6222C17.5716 20.9969 17.5492 21.3701 17.5019 21.7399C17.6385 23.6418 19.7081 25.0815 21.7781 25.3814L22.0881 25.4476L47.3704 25.371C47.8411 25.3004 48.2979 25.1488 48.7188 24.9206C50.0071 24.3475 50.9216 23.1979 51.164 21.8466C51.1747 21.7182 51.1747 21.5891 51.164 21.4607V18.3345C51.164 17.9697 51.3255 17.8238 51.7024 17.8553C52.7467 17.9338 53.7664 18.2026 54.7079 18.6473C54.9587 18.7844 55.1996 18.9376 55.4294 19.1056C55.638 19.2455 55.763 19.4751 55.7641 19.7205V20.0749V21.1898C55.7882 23.3254 54.972 25.3896 53.4799 26.9634C53.4586 26.9861 53.4371 27.0086 53.4153 27.0313C53.356 27.23 53.2486 27.4054 53.0814 27.5466C52.2743 28.2326 51.3416 28.7638 50.3364 29.1212C49.7903 29.3445 49.2201 29.5158 48.6326 29.631C48.4062 29.6696 48.233 29.6537 48.1021 29.6127C47.7759 29.6433 47.4463 29.6565 47.115 29.6521H22.0734L21.8758 29.4753L21.8636 29.6531C18.5275 29.6531 16.4247 28.2581 15.1088 26.6411C13.7803 27.9998 12.0102 28.9072 10.0578 29.1737C9.6041 29.2452 9.14528 29.2802 8.68532 29.2786C6.52497 29.3596 4.42555 28.5649 2.87706 27.0805L2.91986 27.112ZM13.0811 21.1597C13.0278 21.313 12.9952 21.484 12.9879 21.6742C12.7473 22.6479 12.1623 23.514 11.3274 24.1103C10.3265 24.8245 9.06281 25.0831 7.85581 24.8196C6.26141 24.5377 4.983 23.3621 4.58993 21.8154C4.09171 20.2895 4.54997 18.6177 5.76008 17.545C6.52866 16.7744 7.58857 16.3535 8.68532 16.383H12.9406C12.9907 16.3877 13.0406 16.3882 13.0896 16.3852V20.4444V21.0828C13.0871 21.1085 13.0842 21.1343 13.0811 21.1597ZM55.7403 27.5942C56.6148 27.7004 57.5013 27.5332 58.2696 27.1172C59.5574 26.5472 60.4711 25.4039 60.7134 24.0596C60.7241 23.9286 60.7241 23.7969 60.7134 23.6656V15.3735C60.7134 15.0109 60.8644 14.8656 61.2518 14.9072C62.2964 14.9805 63.3164 15.2479 64.255 15.6951C64.5069 15.83 64.7481 15.9824 64.9765 16.151C65.1834 16.2867 65.3078 16.5114 65.3101 16.7522V23.4067C65.362 25.5418 64.556 27.6134 63.0605 29.1904C61.7787 30.5472 60.0822 31.4766 58.216 31.8438C57.484 31.9683 57.3117 31.5225 57.3117 31.5225L55.46 28.1122C55.46 28.1122 55.1587 27.6459 55.7403 27.6459V27.5942Z" fill="#E77D44"/>
</svg>
