<svg xmlns:xlink="http://www.w3.org/1999/xlink" xmlns="http://www.w3.org/2000/svg" viewBox="0 0 24 24" width="24"  height="24" ><defs><g id="icon-horse">
    <path d="M6.25015 8.39496C6.51482 8.48643 6.67713 8.75266 6.63743 9.02979L5.4822 17.0783C6.35602 17.4208 7.21972 17.6956 8.07719 17.9031C8.07719 14.9984 10.3151 13.1186 12.7351 13.1186C13.9818 13.1186 15.1538 13.6017 16.0358 14.4786C16.8496 15.2886 17.3265 16.3442 17.3953 17.4769C18.2244 17.2017 19.0597 16.8634 19.9043 16.4621L18.9289 9.74637C18.8838 9.43732 18.6121 9.20417 18.2964 9.20417H12.6137C12.2859 9.20417 12.025 8.93435 12.0298 8.61137C12.0976 4.13068 10.7512 2.78679 9.03174 2.02522C8.83264 1.93702 8.61075 2.09178 8.6234 2.30916L8.68789 3.41668C8.71202 3.69536 8.58708 3.96821 8.35821 4.13286C8.26231 4.20187 8.50554 4.10487 4.49122 5.53253C3.80831 5.77595 3.52608 6.57979 3.90192 7.16301C4.33673 7.83435 4.89753 7.92855 6.25015 8.39496Z"></path>
    <path d="M2 17.3057V19.2199C2 19.355 2.07866 19.4772 2.20096 19.5346C8.07766 22.2886 15.838 22.2886 21.7274 19.5341C21.8498 19.4769 21.9285 19.3545 21.9285 19.2193V17.3152C21.9285 17.0544 21.6512 16.8872 21.4204 17.0088C15.1563 20.3083 9.1784 20.4761 2.50643 16.9983C2.27589 16.8781 2 17.0457 2 17.3057H2Z"></path>
</g></defs><use xlink:href="#icon-horse" fill="#FFFFFF"></use></svg>